<svg width="82" height="34" viewBox="0 0 82 34" fill="none" xmlns="http://www.w3.org/2000/svg">
<path d="M31.9678 17C31.9678 26.4 24.8686 34 16.0881 34C7.30754 34 0.208374 26.4 0.208374 17C0.208374 7.6 7.30754 0 16.0881 0C24.8686 0 31.9678 7.6 31.9678 17ZM2.07658 17C2.07658 25.3 8.33505 32 16.0881 32C23.8411 32 30.0996 25.3 30.0996 17C30.0996 8.7 23.8411 2 16.0881 2C8.33505 2 2.07658 8.7 2.07658 17Z" fill="#3D3D3D"/>
<path d="M17.676 8.7002L9.92298 17.0002L17.676 25.3002L16.3683 26.7002L7.3075 17.0002L16.3683 7.30019L17.676 8.7002Z" fill="#3D3D3D"/>
<path d="M8.61523 18V16H24.4949V18H8.61523Z" fill="#3D3D3D"/>
<path d="M49.7158 17C49.7158 7.6 56.815 0 65.5955 0C74.3761 0 81.4752 7.6 81.4752 17C81.4752 26.4 74.3761 34 65.5955 34C56.815 34 49.7158 26.4 49.7158 17ZM79.607 17C79.607 8.7 73.3485 2 65.5955 2C57.8425 2 51.584 8.7 51.584 17C51.584 25.3 57.8425 32 65.5955 32C73.3485 32 79.607 25.3 79.607 17Z" fill="#FF4127"/>
<path d="M64.0075 25.2998L71.7605 16.9998L64.0075 8.69981L65.3152 7.2998L74.376 16.9998L65.3152 26.6998L64.0075 25.2998Z" fill="#FF4127"/>
<path d="M73.0684 16V18H57.1887V16H73.0684Z" fill="#FF4127"/>
</svg>
