<svg width="19" height="24" viewBox="0 0 19 24" fill="none" xmlns="http://www.w3.org/2000/svg">
<path d="M9.53524 0C7.18309 0.00294898 4.92806 0.997261 3.26484 2.76482C1.60161 4.53238 0.665992 6.92886 0.663217 9.42857C0.6604 11.4713 1.28828 13.4587 2.45053 15.0857C2.45053 15.0857 2.69249 15.4243 2.73201 15.4731L9.53524 24L16.3417 15.4689C16.3772 15.4234 16.62 15.0857 16.62 15.0857L16.6208 15.0831C17.7824 13.4568 18.41 11.4704 18.4073 9.42857C18.4045 6.92886 17.4689 4.53238 15.8056 2.76482C14.1424 0.997261 11.8874 0.00294898 9.53524 0ZM9.53524 12.8571C8.89716 12.8571 8.27341 12.6561 7.74287 12.2793C7.21232 11.9026 6.79881 11.3671 6.55463 10.7406C6.31045 10.1141 6.24656 9.42477 6.37104 8.75969C6.49552 8.09461 6.80279 7.4837 7.25398 7.00421C7.70517 6.52471 8.28002 6.19817 8.90584 6.06588C9.53166 5.93359 10.1803 6.00148 10.7699 6.26098C11.3594 6.52048 11.8632 6.95993 12.2177 7.52376C12.5722 8.08759 12.7614 8.75046 12.7614 9.42857C12.7604 10.3375 12.4201 11.2089 11.8153 11.8517C11.2105 12.4944 10.3906 12.856 9.53524 12.8571Z" fill="#FF4127"/>
</svg>
