<svg width="19" height="24" viewBox="0 0 19 24" fill="none" xmlns="http://www.w3.org/2000/svg">
<path d="M9.45883 0C7.10667 0.00294898 4.85165 0.997261 3.18842 2.76482C1.5252 4.53238 0.589576 6.92886 0.586801 9.42857C0.583984 11.4713 1.21186 13.4587 2.37411 15.0857C2.37411 15.0857 2.61608 15.4243 2.6556 15.4731L9.45883 24L16.2653 15.4689C16.3008 15.4234 16.5435 15.0857 16.5435 15.0857L16.5443 15.0831C17.706 13.4568 18.3336 11.4704 18.3308 9.42857C18.3281 6.92886 17.3925 4.53238 15.7292 2.76482C14.066 0.997261 11.811 0.00294898 9.45883 0ZM9.45883 12.8571C8.82075 12.8571 8.19699 12.6561 7.66645 12.2793C7.13591 11.9026 6.7224 11.3671 6.47821 10.7406C6.23403 10.1141 6.17014 9.42477 6.29463 8.75969C6.41911 8.09461 6.72637 7.4837 7.17756 7.00421C7.62875 6.52471 8.20361 6.19817 8.82943 6.06588C9.45525 5.93359 10.1039 6.00148 10.6934 6.26098C11.2829 6.52048 11.7868 6.95993 12.1413 7.52376C12.4958 8.08759 12.685 8.75046 12.685 9.42857C12.6839 10.3375 12.3437 11.2089 11.7389 11.8517C11.1341 12.4944 10.3141 12.856 9.45883 12.8571Z" fill="#FF4127"/>
</svg>
