<svg width="15" height="14" viewBox="0 0 15 14" fill="none" xmlns="http://www.w3.org/2000/svg">
<path d="M12.3602 1.4H10.3842V0.35C10.3842 0.257174 10.3495 0.16815 10.2877 0.102513C10.226 0.036875 10.1422 0 10.0548 0C9.96749 0 9.88373 0.036875 9.82196 0.102513C9.7602 0.16815 9.7255 0.257174 9.7255 0.35V1.4H5.11474V0.35C5.11474 0.257174 5.08004 0.16815 5.01828 0.102513C4.95651 0.036875 4.87274 0 4.7854 0C4.69805 0 4.61428 0.036875 4.55252 0.102513C4.49075 0.16815 4.45606 0.257174 4.45606 0.35V1.4H2.48001C2.04344 1.40056 1.6249 1.58511 1.3162 1.91318C1.0075 2.24125 0.833836 2.68604 0.833313 3.15V12.25C0.833836 12.714 1.0075 13.1588 1.3162 13.4868C1.6249 13.8149 2.04344 13.9994 2.48001 14H12.3602C12.7968 13.9996 13.2155 13.8151 13.5242 13.487C13.833 13.1589 14.0066 12.714 14.0069 12.25V3.15C14.0066 2.68598 13.833 2.24108 13.5242 1.91297C13.2155 1.58486 12.7968 1.40037 12.3602 1.4ZM13.3482 12.25C13.3482 12.5285 13.2441 12.7955 13.0589 12.9925C12.8736 13.1894 12.6223 13.3 12.3602 13.3H2.48001C2.21797 13.3 1.96667 13.1894 1.78138 12.9925C1.59609 12.7955 1.49199 12.5285 1.49199 12.25V6.3H13.3482V12.25ZM13.3482 5.6H1.49199V3.15C1.49199 2.5704 1.93331 2.1 2.48001 2.1H4.45606V3.15C4.45606 3.24283 4.49075 3.33185 4.55252 3.39749C4.61428 3.46312 4.69805 3.5 4.7854 3.5C4.87274 3.5 4.95651 3.46312 5.01828 3.39749C5.08004 3.33185 5.11474 3.24283 5.11474 3.15V2.1H9.7255V3.15C9.7255 3.24283 9.7602 3.33185 9.82196 3.39749C9.88373 3.46312 9.96749 3.5 10.0548 3.5C10.1422 3.5 10.226 3.46312 10.2877 3.39749C10.3495 3.33185 10.3842 3.24283 10.3842 3.15V2.1H12.3602C12.6223 2.1 12.8736 2.21062 13.0589 2.40754C13.2441 2.60445 13.3482 2.87152 13.3482 3.15V5.6Z" fill="#3D3D3D" fill-opacity="0.8"/>
</svg>
