<svg width="14" height="14" viewBox="0 0 14 14" fill="none" xmlns="http://www.w3.org/2000/svg">
<path d="M12.0894 1.4H10.1134V0.35C10.1134 0.257174 10.0787 0.16815 10.0169 0.102513C9.95514 0.036875 9.87137 0 9.78403 0C9.69668 0 9.61291 0.036875 9.55115 0.102513C9.48939 0.16815 9.45469 0.257174 9.45469 0.35V1.4H4.84392V0.35C4.84392 0.257174 4.80923 0.16815 4.74746 0.102513C4.6857 0.036875 4.60193 0 4.51458 0C4.42724 0 4.34347 0.036875 4.2817 0.102513C4.21994 0.16815 4.18524 0.257174 4.18524 0.35V1.4H2.2092C1.77263 1.40056 1.35409 1.58511 1.04539 1.91318C0.736682 2.24125 0.563023 2.68604 0.5625 3.15V12.25C0.563023 12.714 0.736682 13.1588 1.04539 13.4868C1.35409 13.8149 1.77263 13.9994 2.2092 14H12.0894C12.526 13.9996 12.9447 13.8151 13.2534 13.487C13.5622 13.1589 13.7358 12.714 13.7361 12.25V3.15C13.7358 2.68598 13.5622 2.24108 13.2534 1.91297C12.9447 1.58486 12.526 1.40037 12.0894 1.4ZM13.0774 12.25C13.0774 12.5285 12.9733 12.7955 12.788 12.9925C12.6028 13.1894 12.3514 13.3 12.0894 13.3H2.2092C1.94716 13.3 1.69586 13.1894 1.51057 12.9925C1.32528 12.7955 1.22118 12.5285 1.22118 12.25V6.3H13.0774V12.25ZM13.0774 5.6H1.22118V3.15C1.22118 2.5704 1.6625 2.1 2.2092 2.1H4.18524V3.15C4.18524 3.24283 4.21994 3.33185 4.2817 3.39749C4.34347 3.46312 4.42724 3.5 4.51458 3.5C4.60193 3.5 4.6857 3.46312 4.74746 3.39749C4.80923 3.33185 4.84392 3.24283 4.84392 3.15V2.1H9.45469V3.15C9.45469 3.24283 9.48939 3.33185 9.55115 3.39749C9.61291 3.46312 9.69668 3.5 9.78403 3.5C9.87137 3.5 9.95514 3.46312 10.0169 3.39749C10.0787 3.33185 10.1134 3.24283 10.1134 3.15V2.1H12.0894C12.3514 2.1 12.6028 2.21062 12.788 2.40754C12.9733 2.60445 13.0774 2.87152 13.0774 3.15V5.6Z" fill="#3D3D3D" fill-opacity="0.8"/>
</svg>
