<svg width="19" height="24" viewBox="0 0 19 24" fill="none" xmlns="http://www.w3.org/2000/svg">
<path d="M9.38244 0C7.03028 0.00294898 4.77526 0.997261 3.11204 2.76482C1.44881 4.53238 0.513191 6.92886 0.510416 9.42857C0.507599 11.4713 1.13547 13.4587 2.29773 15.0857C2.29773 15.0857 2.53969 15.4243 2.57921 15.4731L9.38244 24L16.1889 15.4689C16.2244 15.4234 16.4672 15.0857 16.4672 15.0857L16.468 15.0831C17.6296 13.4568 18.2572 11.4704 18.2545 9.42857C18.2517 6.92886 17.3161 4.53238 15.6528 2.76482C13.9896 0.997261 11.7346 0.00294898 9.38244 0ZM9.38244 12.8571C8.74436 12.8571 8.12061 12.6561 7.59006 12.2793C7.05952 11.9026 6.64601 11.3671 6.40183 10.7406C6.15765 10.1141 6.09376 9.42477 6.21824 8.75969C6.34272 8.09461 6.64999 7.4837 7.10118 7.00421C7.55237 6.52471 8.12722 6.19817 8.75304 6.06588C9.37886 5.93359 10.0275 6.00148 10.617 6.26098C11.2066 6.52048 11.7104 6.95993 12.0649 7.52376C12.4194 8.08759 12.6086 8.75046 12.6086 9.42857C12.6076 10.3375 12.2673 11.2089 11.6625 11.8517C11.0577 12.4944 10.2378 12.856 9.38244 12.8571Z" fill="#FF4127"/>
</svg>
